<svg version="1.1" viewBox="0.0 0.0 960.0 540.0" fill="none" stroke="none" stroke-linecap="square"
     stroke-miterlimit="10"
     xmlns="http://www.w3.org/2000/svg"><clipPath id="g7f4bf2fa91_0_0.0"><path d="m0 0l960.0 0l0 540.0l-960.0 0l0 -540.0z" clip-rule="nonzero"/></clipPath><g clip-path="url(#g7f4bf2fa91_0_0.0)"><path fill="#ffffff" d="m0 0l960.0 0l0 540.0l-960.0 0z" fill-rule="evenodd"/><path fill="#eeeeee" d="m361.1327 123.231514l0 0c0 -3.1890411 2.5852356 -5.7742767 5.774292 -5.7742767l93.74277 0c1.5314331 0 3.0001526 0.6083603 4.0830383 1.691246c1.0828857 1.0828857 1.6912537 2.5515976 1.6912537 4.0830307l0 23.097115c0 3.1890411 -2.5852356 5.7742767 -5.774292 5.7742767l-93.74277 0c-3.1890564 0 -5.774292 -2.5852356 -5.774292 -5.7742767z" fill-rule="evenodd"/><path stroke="#595959" stroke-width="1.0" stroke-linejoin="round" stroke-linecap="butt" d="m361.1327 123.231514l0 0c0 -3.1890411 2.5852356 -5.7742767 5.774292 -5.7742767l93.74277 0c1.5314331 0 3.0001526 0.6083603 4.0830383 1.691246c1.0828857 1.0828857 1.6912537 2.5515976 1.6912537 4.0830307l0 23.097115c0 3.1890411 -2.5852356 5.7742767 -5.774292 5.7742767l-93.74277 0c-3.1890564 0 -5.774292 -2.5852356 -5.774292 -5.7742767z" fill-rule="evenodd"/><path fill="#eeeeee" d="m607.1582 123.22636l0 0c0 -3.1890488 2.585205 -5.7742767 5.774231 -5.7742767l93.7428 0c1.5314331 0 3.000183 0.6083603 4.083069 1.691246c1.0828857 1.0828857 1.6912231 2.5515976 1.6912231 4.0830307l0 23.097115c0 3.1890411 -2.585266 5.7742767 -5.774292 5.7742767l-93.7428 0c-3.1890259 0 -5.774231 -2.5852356 -5.774231 -5.7742767z" fill-rule="evenodd"/><path stroke="#595959" stroke-width="1.0" stroke-linejoin="round" stroke-linecap="butt" d="m607.1582 123.22636l0 0c0 -3.1890488 2.585205 -5.7742767 5.774231 -5.7742767l93.7428 0c1.5314331 0 3.000183 0.6083603 4.083069 1.691246c1.0828857 1.0828857 1.6912231 2.5515976 1.6912231 4.0830307l0 23.097115c0 3.1890411 -2.585266 5.7742767 -5.774292 5.7742767l-93.7428 0c-3.1890259 0 -5.774231 -2.5852356 -5.774231 -5.7742767z" fill-rule="evenodd"/><path fill="#eeeeee" d="m718.5948 123.23668l0 0c0 -3.1890488 2.585266 -5.7742844 5.774292 -5.7742844l93.7428 0c1.5314331 0 3.000122 0.6083603 4.083008 1.6912537c1.0828857 1.0828857 1.6912842 2.5515976 1.6912842 4.0830307l0 23.097107c0 3.1890411 -2.585266 5.7742767 -5.774292 5.7742767l-93.7428 0c-3.1890259 0 -5.774292 -2.5852356 -5.774292 -5.7742767z" fill-rule="evenodd"/><path stroke="#595959" stroke-width="1.0" stroke-linejoin="round" stroke-linecap="butt" d="m718.5948 123.23668l0 0c0 -3.1890488 2.585266 -5.7742844 5.774292 -5.7742844l93.7428 0c1.5314331 0 3.000122 0.6083603 4.083008 1.6912537c1.0828857 1.0828857 1.6912842 2.5515976 1.6912842 4.0830307l0 23.097107c0 3.1890411 -2.585266 5.7742767 -5.774292 5.7742767l-93.7428 0c-3.1890259 0 -5.774292 -2.5852356 -5.774292 -5.7742767z" fill-rule="evenodd"/><path fill="#eeeeee" d="m361.1327 179.18842l0 0c0 -3.1890564 2.5852356 -5.7742767 5.774292 -5.7742767l93.74277 0c1.5314331 0 3.0001526 0.60835266 4.0830383 1.6912384c1.0828857 1.0828857 1.6912537 2.5516052 1.6912537 4.0830383l0 23.097107c0 3.1890411 -2.5852356 5.7742767 -5.774292 5.7742767l-93.74277 0c-3.1890564 0 -5.774292 -2.5852356 -5.774292 -5.7742767z" fill-rule="evenodd"/><path stroke="#595959" stroke-width="1.0" stroke-linejoin="round" stroke-linecap="butt" d="m361.1327 179.18842l0 0c0 -3.1890564 2.5852356 -5.7742767 5.774292 -5.7742767l93.74277 0c1.5314331 0 3.0001526 0.60835266 4.0830383 1.6912384c1.0828857 1.0828857 1.6912537 2.5516052 1.6912537 4.0830383l0 23.097107c0 3.1890411 -2.5852356 5.7742767 -5.774292 5.7742767l-93.74277 0c-3.1890564 0 -5.774292 -2.5852356 -5.774292 -5.7742767z" fill-rule="evenodd"/><path fill="#eeeeee" d="m472.56934 179.18842l0 0c0 -3.1890564 2.585205 -5.7742767 5.7742615 -5.7742767l93.74277 0c1.5314331 0 3.000183 0.60835266 4.083069 1.6912384c1.0828857 1.0828857 1.6912231 2.5516052 1.6912231 4.0830383l0 23.097107c0 3.1890411 -2.585205 5.7742767 -5.774292 5.7742767l-93.74277 0c-3.1890564 0 -5.7742615 -2.5852356 -5.7742615 -5.7742767z" fill-rule="evenodd"/><path stroke="#595959" stroke-width="1.0" stroke-linejoin="round" stroke-linecap="butt" d="m472.56934 179.18842l0 0c0 -3.1890564 2.585205 -5.7742767 5.7742615 -5.7742767l93.74277 0c1.5314331 0 3.000183 0.60835266 4.083069 1.6912384c1.0828857 1.0828857 1.6912231 2.5516052 1.6912231 4.0830383l0 23.097107c0 3.1890411 -2.585205 5.7742767 -5.774292 5.7742767l-93.74277 0c-3.1890564 0 -5.7742615 -2.5852356 -5.7742615 -5.7742767z" fill-rule="evenodd"/><path fill="#eeeeee" d="m249.69608 179.19873l0 0c0 -3.1890411 2.5852356 -5.7742767 5.7742767 -5.7742767l93.74278 0c1.5314331 0 3.0001526 0.60835266 4.0830383 1.6912384c1.0828857 1.0828857 1.6912537 2.5516052 1.6912537 4.0830383l0 23.097107c0 3.1890564 -2.5852356 5.7742767 -5.774292 5.7742767l-93.74278 0c-3.1890411 0 -5.7742767 -2.5852203 -5.7742767 -5.7742767z" fill-rule="evenodd"/><path stroke="#595959" stroke-width="1.0" stroke-linejoin="round" stroke-linecap="butt" d="m249.69608 179.19873l0 0c0 -3.1890411 2.5852356 -5.7742767 5.7742767 -5.7742767l93.74278 0c1.5314331 0 3.0001526 0.60835266 4.0830383 1.6912384c1.0828857 1.0828857 1.6912537 2.5516052 1.6912537 4.0830383l0 23.097107c0 3.1890564 -2.5852356 5.7742767 -5.774292 5.7742767l-93.74278 0c-3.1890411 0 -5.7742767 -2.5852203 -5.7742767 -5.7742767z" fill-rule="evenodd"/><path fill="#eeeeee" d="m584.0059 179.19873l0 0c0 -3.1890411 2.585266 -5.7742767 5.774292 -5.7742767l93.7428 0c1.5314331 0 3.000122 0.60835266 4.083008 1.6912384c1.0828857 1.0828857 1.6912842 2.5516052 1.6912842 4.0830383l0 23.097107c0 3.1890564 -2.585266 5.7742767 -5.774292 5.7742767l-93.7428 0c-3.1890259 0 -5.774292 -2.5852203 -5.774292 -5.7742767z" fill-rule="evenodd"/><path stroke="#595959" stroke-width="1.0" stroke-linejoin="round" stroke-linecap="butt" d="m584.0059 179.19873l0 0c0 -3.1890411 2.585266 -5.7742767 5.774292 -5.7742767l93.7428 0c1.5314331 0 3.000122 0.60835266 4.083008 1.6912384c1.0828857 1.0828857 1.6912842 2.5516052 1.6912842 4.0830383l0 23.097107c0 3.1890564 -2.585266 5.7742767 -5.774292 5.7742767l-93.7428 0c-3.1890259 0 -5.774292 -2.5852203 -5.774292 -5.7742767z" fill-rule="evenodd"/><path fill="#eeeeee" d="m472.56934 123.231514l0 0c0 -3.1890411 2.585205 -5.7742767 5.7742615 -5.7742767l93.74277 0c1.5314331 0 3.000183 0.6083603 4.083069 1.691246c1.0828857 1.0828857 1.6912231 2.5515976 1.6912231 4.0830307l0 23.097115c0 3.1890411 -2.585205 5.7742767 -5.774292 5.7742767l-93.74277 0c-3.1890564 0 -5.7742615 -2.5852356 -5.7742615 -5.7742767z" fill-rule="evenodd"/><path stroke="#595959" stroke-width="1.0" stroke-linejoin="round" stroke-linecap="butt" d="m472.56934 123.231514l0 0c0 -3.1890411 2.585205 -5.7742767 5.7742615 -5.7742767l93.74277 0c1.5314331 0 3.000183 0.6083603 4.083069 1.691246c1.0828857 1.0828857 1.6912231 2.5515976 1.6912231 4.0830307l0 23.097115c0 3.1890411 -2.585205 5.7742767 -5.774292 5.7742767l-93.74277 0c-3.1890564 0 -5.7742615 -2.5852356 -5.7742615 -5.7742767z" fill-rule="evenodd"/><path fill="#eeeeee" d="m830.03143 123.22636l0 0c0 -3.1890488 2.585205 -5.7742767 5.774292 -5.7742767l93.74274 0c1.5314331 0 3.000183 0.6083603 4.083069 1.691246c1.0828857 1.0828857 1.6912231 2.5515976 1.6912231 4.0830307l0 23.097115c0 3.1890411 -2.585205 5.7742767 -5.774292 5.7742767l-93.74274 0c-3.189087 0 -5.774292 -2.5852356 -5.774292 -5.7742767z" fill-rule="evenodd"/><path stroke="#595959" stroke-width="1.0" stroke-linejoin="round" stroke-linecap="butt" d="m830.03143 123.22636l0 0c0 -3.1890488 2.585205 -5.7742767 5.774292 -5.7742767l93.74274 0c1.5314331 0 3.000183 0.6083603 4.083069 1.691246c1.0828857 1.0828857 1.6912231 2.5515976 1.6912231 4.0830307l0 23.097115c0 3.1890411 -2.585205 5.7742767 -5.774292 5.7742767l-93.74274 0c-3.189087 0 -5.774292 -2.5852356 -5.774292 -5.7742767z" fill-rule="evenodd"/><path fill="#eeeeee" d="m3.670597 123.231514l0 0c0 -3.1890411 2.5852323 -5.7742767 5.7742786 -5.7742767l93.74278 0c1.5314331 0 3.000145 0.6083603 4.0830307 1.691246c1.0828857 1.0828857 1.691246 2.5515976 1.691246 4.0830307l0 23.097115c0 3.1890411 -2.5852356 5.7742767 -5.7742767 5.7742767l-93.74278 0c-3.1890464 0 -5.7742786 -2.5852356 -5.7742786 -5.7742767z" fill-rule="evenodd"/><path stroke="#595959" stroke-width="1.0" stroke-linejoin="round" stroke-linecap="butt" d="m3.670597 123.231514l0 0c0 -3.1890411 2.5852323 -5.7742767 5.7742786 -5.7742767l93.74278 0c1.5314331 0 3.000145 0.6083603 4.0830307 1.691246c1.0828857 1.0828857 1.691246 2.5515976 1.691246 4.0830307l0 23.097115c0 3.1890411 -2.5852356 5.7742767 -5.7742767 5.7742767l-93.74278 0c-3.1890464 0 -5.7742786 -2.5852356 -5.7742786 -5.7742767z" fill-rule="evenodd"/><path fill="#eeeeee" d="m115.107216 123.24184l0 0c0 -3.1890488 2.5852356 -5.7742767 5.7742844 -5.7742767l93.74278 0c1.5314331 0 3.0001373 0.6083603 4.083023 1.691246c1.0828857 1.0828857 1.6912537 2.5515976 1.6912537 4.0830307l0 23.097107c0 3.1890564 -2.5852356 5.7742767 -5.7742767 5.7742767l-93.74278 0c-3.1890488 0 -5.7742844 -2.5852203 -5.7742844 -5.7742767z" fill-rule="evenodd"/><path stroke="#595959" stroke-width="1.0" stroke-linejoin="round" stroke-linecap="butt" d="m115.107216 123.24184l0 0c0 -3.1890488 2.5852356 -5.7742767 5.7742844 -5.7742767l93.74278 0c1.5314331 0 3.0001373 0.6083603 4.083023 1.691246c1.0828857 1.0828857 1.6912537 2.5515976 1.6912537 4.0830307l0 23.097107c0 3.1890564 -2.5852356 5.7742767 -5.7742767 5.7742767l-93.74278 0c-3.1890488 0 -5.7742844 -2.5852203 -5.7742844 -5.7742767z" fill-rule="evenodd"/><path fill="#eeeeee" d="m226.54384 123.231514l0 0c0 -3.1890411 2.5852356 -5.7742767 5.7742767 -5.7742767l93.7428 0c1.5314331 0 3.000122 0.6083603 4.083008 1.691246c1.0828857 1.0828857 1.6912537 2.5515976 1.6912537 4.0830307l0 23.097115c0 3.1890411 -2.5852356 5.7742767 -5.7742615 5.7742767l-93.7428 0c-3.1890411 0 -5.7742767 -2.5852356 -5.7742767 -5.7742767z" fill-rule="evenodd"/><path stroke="#595959" stroke-width="1.0" stroke-linejoin="round" stroke-linecap="butt" d="m226.54384 123.231514l0 0c0 -3.1890411 2.5852356 -5.7742767 5.7742767 -5.7742767l93.7428 0c1.5314331 0 3.000122 0.6083603 4.083008 1.691246c1.0828857 1.0828857 1.6912537 2.5515976 1.6912537 4.0830307l0 23.097115c0 3.1890411 -2.5852356 5.7742767 -5.7742615 5.7742767l-93.7428 0c-3.1890411 0 -5.7742767 -2.5852356 -5.7742767 -5.7742767z" fill-rule="evenodd"/><path fill="#eeeeee" d="m135.0143 67.26666l0 0c0 -3.1890488 2.5852356 -5.7742805 5.7742767 -5.7742805l93.74278 0c1.5314331 0 3.0001526 0.6083603 4.0830383 1.691246c1.0828857 1.0828896 1.6912384 2.5516014 1.6912384 4.0830345l0 23.097107c0 3.1890488 -2.5852203 5.7742844 -5.7742767 5.7742844l-93.74278 0c-3.1890411 0 -5.7742767 -2.5852356 -5.7742767 -5.7742844z" fill-rule="evenodd"/><path stroke="#595959" stroke-width="1.0" stroke-linejoin="round" stroke-linecap="butt" d="m135.0143 67.26666l0 0c0 -3.1890488 2.5852356 -5.7742805 5.7742767 -5.7742805l93.74278 0c1.5314331 0 3.0001526 0.6083603 4.0830383 1.691246c1.0828857 1.0828896 1.6912384 2.5516014 1.6912384 4.0830345l0 23.097107c0 3.1890488 -2.5852203 5.7742844 -5.7742767 5.7742844l-93.74278 0c-3.1890411 0 -5.7742767 -2.5852356 -5.7742767 -5.7742844z" fill-rule="evenodd"/><path fill="#eeeeee" d="m245.07614 67.26531l0 0c0 -3.1890488 2.5852203 -5.7742805 5.7742767 -5.7742805l93.74278 0c1.5314331 0 3.0001526 0.6083565 4.0830383 1.691246c1.0828857 1.0828896 1.6912231 2.5515938 1.6912231 4.0830345l0 23.097107c0 3.1890488 -2.5852356 5.7742767 -5.7742615 5.7742767l-93.74278 0c-3.1890564 0 -5.7742767 -2.585228 -5.7742767 -5.7742767z" fill-rule="evenodd"/><path stroke="#595959" stroke-width="1.0" stroke-linejoin="round" stroke-linecap="butt" d="m245.07614 67.26531l0 0c0 -3.1890488 2.5852203 -5.7742805 5.7742767 -5.7742805l93.74278 0c1.5314331 0 3.0001526 0.6083565 4.0830383 1.691246c1.0828857 1.0828896 1.6912231 2.5515938 1.6912231 4.0830345l0 23.097107c0 3.1890488 -2.5852356 5.7742767 -5.7742615 5.7742767l-93.74278 0c-3.1890564 0 -5.7742767 -2.585228 -5.7742767 -5.7742767z" fill-rule="evenodd"/><path fill="#eeeeee" d="m11.188714 11.301871l0 0c0 -3.189046 2.5852318 -5.774278 5.7742777 -5.774278l93.74278 0c1.5314331 0 3.000145 0.6083598 4.0830307 1.691247c1.0828857 1.0828872 1.691246 2.551597 1.691246 4.083031l0 23.09711c0 3.1890488 -2.585228 5.7742805 -5.7742767 5.7742805l-93.74278 0c-3.189046 0 -5.7742777 -2.5852318 -5.7742777 -5.7742805z" fill-rule="evenodd"/><path stroke="#595959" stroke-width="1.0" stroke-linejoin="round" stroke-linecap="butt" d="m11.188714 11.301871l0 0c0 -3.189046 2.5852318 -5.774278 5.7742777 -5.774278l93.74278 0c1.5314331 0 3.000145 0.6083598 4.0830307 1.691247c1.0828857 1.0828872 1.691246 2.551597 1.691246 4.083031l0 23.09711c0 3.1890488 -2.585228 5.7742805 -5.7742767 5.7742805l-93.74278 0c-3.189046 0 -5.7742777 -2.5852318 -5.7742777 -5.7742805z" fill-rule="evenodd"/><path fill="#eeeeee" d="m121.25055 11.30052l0 0c0 -3.189046 2.585228 -5.774278 5.7742767 -5.774278l93.74278 0c1.5314331 0 3.0001373 0.6083598 4.083023 1.691247c1.082901 1.0828872 1.6912537 2.551597 1.6912537 4.083031l0 23.097113c0 3.189045 -2.5852356 5.7742767 -5.7742767 5.7742767l-93.74278 0c-3.1890488 0 -5.7742767 -2.5852318 -5.7742767 -5.7742767z" fill-rule="evenodd"/><path stroke="#595959" stroke-width="1.0" stroke-linejoin="round" stroke-linecap="butt" d="m121.25055 11.30052l0 0c0 -3.189046 2.585228 -5.774278 5.7742767 -5.774278l93.74278 0c1.5314331 0 3.0001373 0.6083598 4.083023 1.691247c1.082901 1.0828872 1.6912537 2.551597 1.6912537 4.083031l0 23.097113c0 3.189045 -2.5852356 5.7742767 -5.7742767 5.7742767l-93.74278 0c-3.1890488 0 -5.7742767 -2.5852318 -5.7742767 -5.7742767z" fill-rule="evenodd"/><path fill="#eeeeee" d="m261.8345 11.301854l0 0c0 -3.189046 2.5852356 -5.7742786 5.774292 -5.7742786l93.74277 0c1.5314331 0 3.0001526 0.6083598 4.0830383 1.691247c1.0828857 1.0828876 1.6912537 2.5515976 1.6912537 4.0830317l0 23.097115c0 3.189045 -2.5852356 5.7742767 -5.774292 5.7742767l-93.74277 0c-3.1890564 0 -5.774292 -2.5852318 -5.774292 -5.7742767z" fill-rule="evenodd"/><path stroke="#595959" stroke-width="1.0" stroke-linejoin="round" stroke-linecap="butt" d="m261.8345 11.301854l0 0c0 -3.189046 2.5852356 -5.7742786 5.774292 -5.7742786l93.74277 0c1.5314331 0 3.0001526 0.6083598 4.0830383 1.691247c1.0828857 1.0828876 1.6912537 2.5515976 1.6912537 4.0830317l0 23.097115c0 3.189045 -2.5852356 5.7742767 -5.774292 5.7742767l-93.74277 0c-3.1890564 0 -5.774292 -2.5852318 -5.774292 -5.7742767z" fill-rule="evenodd"/><path fill="#eeeeee" d="m371.89636 11.300503l0 0c0 -3.189046 2.585205 -5.7742786 5.7742615 -5.7742786l93.7428 0c1.5314331 0 3.000122 0.6083598 4.083008 1.691247c1.0828857 1.0828876 1.6912537 2.5515976 1.6912537 4.0830317l0 23.09711c0 3.1890488 -2.5852356 5.7742805 -5.7742615 5.7742805l-93.7428 0c-3.1890564 0 -5.7742615 -2.5852318 -5.7742615 -5.7742805z" fill-rule="evenodd"/><path stroke="#595959" stroke-width="1.0" stroke-linejoin="round" stroke-linecap="butt" d="m371.89636 11.300503l0 0c0 -3.189046 2.585205 -5.7742786 5.7742615 -5.7742786l93.7428 0c1.5314331 0 3.000122 0.6083598 4.083008 1.691247c1.0828857 1.0828876 1.6912537 2.5515976 1.6912537 4.0830317l0 23.09711c0 3.1890488 -2.5852356 5.7742805 -5.7742615 5.7742805l-93.7428 0c-3.1890564 0 -5.7742615 -2.5852318 -5.7742615 -5.7742805z" fill-rule="evenodd"/><path fill="#eeeeee" d="m625.00867 67.264084l0 0c0 -3.1890488 2.585266 -5.7742805 5.774292 -5.7742805l93.7428 0c1.5314331 0 3.000122 0.6083565 4.083008 1.691246c1.0828857 1.0828896 1.6912842 2.5515938 1.6912842 4.0830345l0 23.097107c0 3.1890488 -2.585266 5.7742767 -5.774292 5.7742767l-93.7428 0c-3.1890259 0 -5.774292 -2.585228 -5.774292 -5.7742767z" fill-rule="evenodd"/><path stroke="#595959" stroke-width="1.0" stroke-linejoin="round" stroke-linecap="butt" d="m625.00867 67.264084l0 0c0 -3.1890488 2.585266 -5.7742805 5.774292 -5.7742805l93.7428 0c1.5314331 0 3.000122 0.6083565 4.083008 1.691246c1.0828857 1.0828896 1.6912842 2.5515938 1.6912842 4.0830345l0 23.097107c0 3.1890488 -2.585266 5.7742767 -5.774292 5.7742767l-93.7428 0c-3.1890259 0 -5.774292 -2.585228 -5.774292 -5.7742767z" fill-rule="evenodd"/><path fill="#eeeeee" d="m735.0705 67.262726l0 0c0 -3.1890411 2.585266 -5.7742767 5.774292 -5.7742767l93.7428 0c1.5314331 0 3.000122 0.6083603 4.083008 1.6912498c1.0828857 1.0828819 1.6912842 2.5515938 1.6912842 4.083027l0 23.097115c0 3.1890488 -2.585266 5.7742767 -5.774292 5.7742767l-93.7428 0c-3.1890259 0 -5.774292 -2.585228 -5.774292 -5.7742767z" fill-rule="evenodd"/><path stroke="#595959" stroke-width="1.0" stroke-linejoin="round" stroke-linecap="butt" d="m735.0705 67.262726l0 0c0 -3.1890411 2.585266 -5.7742767 5.774292 -5.7742767l93.7428 0c1.5314331 0 3.000122 0.6083603 4.083008 1.6912498c1.0828857 1.0828819 1.6912842 2.5515938 1.6912842 4.083027l0 23.097115c0 3.1890488 -2.585266 5.7742767 -5.774292 5.7742767l-93.7428 0c-3.1890259 0 -5.774292 -2.585228 -5.774292 -5.7742767z" fill-rule="evenodd"/><path fill="#eeeeee" d="m503.2397 11.301871l0 0c0 -3.189046 2.5852356 -5.774278 5.7742615 -5.774278l93.74277 0c1.5314331 0 3.000183 0.6083598 4.083069 1.691247c1.0828857 1.0828872 1.6912231 2.551597 1.6912231 4.083031l0 23.09711c0 3.1890488 -2.585205 5.7742805 -5.774292 5.7742805l-93.74277 0c-3.1890259 0 -5.7742615 -2.5852318 -5.7742615 -5.7742805z" fill-rule="evenodd"/><path stroke="#595959" stroke-width="1.0" stroke-linejoin="round" stroke-linecap="butt" d="m503.2397 11.301871l0 0c0 -3.189046 2.5852356 -5.774278 5.7742615 -5.774278l93.74277 0c1.5314331 0 3.000183 0.6083598 4.083069 1.691247c1.0828857 1.0828872 1.6912231 2.551597 1.6912231 4.083031l0 23.09711c0 3.1890488 -2.585205 5.7742805 -5.774292 5.7742805l-93.74277 0c-3.1890259 0 -5.7742615 -2.5852318 -5.7742615 -5.7742805z" fill-rule="evenodd"/><path fill="#eeeeee" d="m613.3015 11.30052l0 0c0 -3.189046 2.585205 -5.774278 5.774292 -5.774278l93.74274 0c1.5314331 0 3.000183 0.6083598 4.083069 1.691247c1.0828857 1.0828872 1.6912231 2.551597 1.6912231 4.083031l0 23.097113c0 3.189045 -2.585205 5.7742767 -5.774292 5.7742767l-93.74274 0c-3.189087 0 -5.774292 -2.5852318 -5.774292 -5.7742767z" fill-rule="evenodd"/><path stroke="#595959" stroke-width="1.0" stroke-linejoin="round" stroke-linecap="butt" d="m613.3015 11.30052l0 0c0 -3.189046 2.585205 -5.774278 5.774292 -5.774278l93.74274 0c1.5314331 0 3.000183 0.6083598 4.083069 1.691247c1.0828857 1.0828872 1.6912231 2.551597 1.6912231 4.083031l0 23.097113c0 3.189045 -2.585205 5.7742767 -5.774292 5.7742767l-93.74274 0c-3.189087 0 -5.774292 -2.5852318 -5.774292 -5.7742767z" fill-rule="evenodd"/><path fill="#eeeeee" d="m744.6465 11.300564l0 0c0 -3.189046 2.585266 -5.774278 5.774292 -5.774278l93.7428 0c1.5314331 0 3.000122 0.6083598 4.083008 1.691247c1.0828857 1.0828872 1.6912842 2.551598 1.6912842 4.083031l0 23.097115c0 3.189045 -2.585266 5.7742767 -5.774292 5.7742767l-93.7428 0c-3.1890259 0 -5.774292 -2.5852318 -5.774292 -5.7742767z" fill-rule="evenodd"/><path stroke="#595959" stroke-width="1.0" stroke-linejoin="round" stroke-linecap="butt" d="m744.6465 11.300564l0 0c0 -3.189046 2.585266 -5.774278 5.774292 -5.774278l93.7428 0c1.5314331 0 3.000122 0.6083598 4.083008 1.691247c1.0828857 1.0828872 1.6912842 2.551598 1.6912842 4.083031l0 23.097115c0 3.189045 -2.585266 5.7742767 -5.774292 5.7742767l-93.7428 0c-3.1890259 0 -5.774292 -2.5852318 -5.774292 -5.7742767z" fill-rule="evenodd"/><path fill="#eeeeee" d="m854.7083 11.299212l0 0c0 -3.189046 2.585266 -5.774278 5.774292 -5.774278l93.7428 0c1.5314331 0 3.000122 0.60835934 4.083008 1.691247c1.0828857 1.0828872 1.6912842 2.551597 1.6912842 4.083031l0 23.09711c0 3.189045 -2.585266 5.7742805 -5.774292 5.7742805l-93.7428 0c-3.1890259 0 -5.774292 -2.5852356 -5.774292 -5.7742805z" fill-rule="evenodd"/><path stroke="#595959" stroke-width="1.0" stroke-linejoin="round" stroke-linecap="butt" d="m854.7083 11.299212l0 0c0 -3.189046 2.585266 -5.774278 5.774292 -5.774278l93.7428 0c1.5314331 0 3.000122 0.60835934 4.083008 1.691247c1.0828857 1.0828872 1.6912842 2.551597 1.6912842 4.083031l0 23.09711c0 3.189045 -2.585266 5.7742805 -5.774292 5.7742805l-93.7428 0c-3.1890259 0 -5.774292 -2.5852356 -5.774292 -5.7742805z" fill-rule="evenodd"/></g></svg>